<svg width="2030" height="1083" viewBox="0 0 2030 1083" fill="none" xmlns="http://www.w3.org/2000/svg">
<g clip-path="url(#clip0_1012_315)" filter="url(#filter0_d_1012_315)">
<rect width="1920" height="973" transform="translate(42 42)" fill="black"/>
<g filter="url(#filter1_i_1012_315)">
<path d="M42 929.268C2166.59 977.085 1009.87 456.405 1962 456.405" stroke="url(#paint0_linear_1012_315)" stroke-width="30"/>
</g>
<path d="M37.1628 915.424C37.1628 922.788 43.1323 928.758 50.4961 928.758C57.8599 928.758 63.8294 922.788 63.8294 915.424C63.8294 908.06 57.8599 902.091 50.4961 902.091C43.1323 902.091 37.1628 908.06 37.1628 915.424ZM1938.34 442.562C1938.34 449.925 1944.31 455.895 1951.67 455.895C1959.04 455.895 1965.01 449.925 1965.01 442.562C1965.01 435.198 1959.04 429.228 1951.67 429.228C1944.31 429.228 1938.34 435.198 1938.34 442.562ZM50.461 917.924C579.538 925.342 904.169 899.5 1108.22 856.502C1312.31 813.495 1396.09 753.253 1443.06 691.634C1466.45 660.942 1480.66 629.948 1495.97 601.176C1511.32 572.342 1527.86 545.561 1556.03 522.555C1612.41 476.504 1716.02 445.062 1951.67 445.062V440.062C1715.93 440.062 1610.71 471.435 1552.87 518.682C1523.92 542.325 1507.01 569.813 1491.56 598.826C1476.08 627.901 1462.15 658.333 1439.08 688.603C1393.11 748.909 1310.64 808.737 1107.18 851.61C903.688 894.492 579.499 920.341 50.5311 912.925L50.461 917.924Z" fill="#5DB7D0"/>
<g filter="url(#filter2_i_1012_315)">
<path d="M20.7773 374.481C982.761 374.481 1018.03 954.877 1983.22 954.877" stroke="url(#paint1_linear_1012_315)" stroke-width="56"/>
</g>
<path d="M42.2956 348.873C42.2956 356.237 48.2651 362.206 55.6289 362.206C62.9927 362.206 68.9622 356.237 68.9622 348.873C68.9622 341.509 62.9927 335.54 55.6289 335.54C48.2651 335.54 42.2956 341.509 42.2956 348.873ZM1938.34 929.268C1938.34 936.632 1944.31 942.602 1951.67 942.602C1959.04 942.602 1965.01 936.632 1965.01 929.268C1965.01 921.904 1959.04 915.935 1951.67 915.935C1944.31 915.935 1938.34 921.904 1938.34 929.268ZM55.6289 351.373C519.654 351.373 760.051 496.184 1001.2 641.213C1242.58 786.383 1484.72 931.768 1951.67 931.768V926.768C1486.1 926.768 1244.92 781.955 1003.78 636.928C762.396 491.76 521.038 346.373 55.6289 346.373V351.373Z" fill="#BD3795"/>
<g filter="url(#filter3_i_1012_315)">
<path d="M1965.32 220.798C1756.77 338.118 208.927 332.681 38.5312 220.798" stroke="url(#paint2_linear_1012_315)" stroke-opacity="0.35" stroke-width="40"/>
</g>
<g filter="url(#filter4_d_1012_315)">
<path d="M1935.49 205.869C1935.49 213.233 1941.46 219.202 1948.83 219.202C1956.19 219.202 1962.16 213.233 1962.16 205.869C1962.16 198.505 1956.19 192.536 1948.83 192.536C1941.46 192.536 1935.49 198.505 1935.49 205.869ZM41.3854 205.869C41.3854 213.233 47.355 219.203 54.7188 219.203C62.0825 219.203 68.0521 213.233 68.0521 205.869C68.0521 198.505 62.0825 192.536 54.7188 192.536C47.355 192.536 41.3854 198.505 41.3854 205.869ZM1947.59 203.699C1922.38 218.127 1876.57 230.819 1815.02 241.68C1753.57 252.522 1676.74 261.489 1589.74 268.605C1415.73 282.838 1201.15 289.66 987.712 289.32C774.278 288.98 562.041 281.479 392.722 267.077C308.058 259.875 234.167 250.951 176.24 240.345C147.276 235.041 122.341 229.323 102.065 223.203C81.7506 217.07 66.2701 210.578 56.1073 203.79L53.3302 207.948C64.1056 215.145 80.1421 221.807 100.62 227.989C121.135 234.182 146.267 239.939 175.34 245.263C233.487 255.91 307.554 264.85 392.298 272.059C561.795 286.477 774.177 293.98 987.704 294.32C1201.23 294.66 1415.96 287.836 1590.14 273.589C1677.23 266.465 1754.23 257.483 1815.88 246.604C1877.44 235.743 1924.03 222.942 1950.07 208.039L1947.59 203.699Z" fill="#541585"/>
</g>
<g filter="url(#filter5_i_1012_315)">
<path d="M1956.48 277.839C1748.89 395.159 208.145 389.722 38.5312 277.839" stroke="url(#paint3_linear_1012_315)" stroke-opacity="0.35" stroke-width="40"/>
</g>
<path d="M1937.6 262.91C1937.6 270.274 1943.57 276.243 1950.93 276.243C1958.3 276.243 1964.27 270.274 1964.27 262.91C1964.27 255.546 1958.3 249.577 1950.93 249.577C1943.57 249.577 1937.6 255.546 1937.6 262.91ZM41.3112 262.91C41.3112 270.274 47.2807 276.244 54.6445 276.244C62.0083 276.244 67.9779 270.274 67.9779 262.91C67.9779 255.547 62.0083 249.577 54.6445 249.577C47.2807 249.577 41.3112 255.547 41.3112 262.91ZM1949.69 260.74C1924.45 275.168 1878.59 287.86 1816.97 298.721C1755.45 309.563 1678.53 318.53 1591.43 325.646C1417.22 339.879 1202.39 346.701 988.711 346.361C775.031 346.021 562.55 338.52 393.036 324.118C308.274 316.916 234.299 307.992 176.305 297.386C147.307 292.082 122.343 286.364 102.043 280.243C81.7057 274.111 66.2069 267.619 56.032 260.831L53.2571 264.99C64.0445 272.187 80.0989 278.849 100.6 285.03C121.139 291.224 146.299 296.981 175.405 302.304C233.619 312.951 307.771 321.891 392.612 329.1C562.304 343.518 774.93 351.021 988.703 351.361C1202.48 351.701 1417.45 344.877 1591.83 330.63C1679.02 323.506 1756.1 314.524 1817.83 303.645C1879.46 292.784 1926.1 279.983 1952.17 265.081L1949.69 260.74Z" fill="#8100E3"/>
<g filter="url(#filter6_i_1012_315)">
<path d="M36.4844 160.925C335.037 209.45 561.787 180.712 573.891 42" stroke="url(#paint4_linear_1012_315)" stroke-width="30"/>
</g>
<path d="M42.0651 149.602C42.0651 156.966 48.0346 162.935 55.3984 162.935C62.7622 162.935 68.7318 156.966 68.7318 149.602C68.7318 142.238 62.7622 136.269 55.3984 136.269C48.0346 136.269 42.0651 142.238 42.0651 149.602ZM55.0128 152.072C195.719 174.042 319.728 178.564 410.097 161.788C500.281 145.046 558.169 106.785 564.033 42.2261L559.053 41.7739C553.517 102.72 498.926 140.212 409.184 156.872C319.627 173.497 196.264 169.067 55.7841 147.132L55.0128 152.072Z" fill="#C5186E"/>
</g>
<defs>
<filter id="filter0_d_1012_315" x="0.491548" y="0.491548" width="2029.23" height="1082.23" filterUnits="userSpaceOnUse" color-interpolation-filters="sRGB">
<feFlood flood-opacity="0" result="BackgroundImageFix"/>
<feColorMatrix in="SourceAlpha" type="matrix" values="0 0 0 0 0 0 0 0 0 0 0 0 0 0 0 0 0 0 127 0" result="hardAlpha"/>
<feOffset dx="13.1079" dy="13.1079"/>
<feGaussianBlur stdDeviation="27.3082"/>
<feComposite in2="hardAlpha" operator="out"/>
<feColorMatrix type="matrix" values="0 0 0 0 0 0 0 0 0 0 0 0 0 0 0 0 0 0 0.5 0"/>
<feBlend mode="normal" in2="BackgroundImageFix" result="effect1_dropShadow_1012_315"/>
<feBlend mode="normal" in="SourceGraphic" in2="effect1_dropShadow_1012_315" result="shape"/>
</filter>
<filter id="filter1_i_1012_315" x="41.6641" y="432.405" width="1920.34" height="514.966" filterUnits="userSpaceOnUse" color-interpolation-filters="sRGB">
<feFlood flood-opacity="0" result="BackgroundImageFix"/>
<feBlend mode="normal" in="SourceGraphic" in2="BackgroundImageFix" result="shape"/>
<feColorMatrix in="SourceAlpha" type="matrix" values="0 0 0 0 0 0 0 0 0 0 0 0 0 0 0 0 0 0 127 0" result="hardAlpha"/>
<feOffset dy="-9"/>
<feGaussianBlur stdDeviation="6.8"/>
<feComposite in2="hardAlpha" operator="arithmetic" k2="-1" k3="1"/>
<feColorMatrix type="matrix" values="0 0 0 0 0 0 0 0 0 0 0 0 0 0 0 0 0 0 1 0"/>
<feBlend mode="normal" in2="shape" result="effect1_innerShadow_1012_315"/>
</filter>
<filter id="filter2_i_1012_315" x="20.7773" y="326.481" width="1962.45" height="656.395" filterUnits="userSpaceOnUse" color-interpolation-filters="sRGB">
<feFlood flood-opacity="0" result="BackgroundImageFix"/>
<feBlend mode="normal" in="SourceGraphic" in2="BackgroundImageFix" result="shape"/>
<feColorMatrix in="SourceAlpha" type="matrix" values="0 0 0 0 0 0 0 0 0 0 0 0 0 0 0 0 0 0 127 0" result="hardAlpha"/>
<feOffset dy="-20"/>
<feGaussianBlur stdDeviation="11.15"/>
<feComposite in2="hardAlpha" operator="arithmetic" k2="-1" k3="1"/>
<feColorMatrix type="matrix" values="0 0 0 0 0 0 0 0 0 0 0 0 0 0 0 0 0 0 1 0"/>
<feBlend mode="normal" in2="shape" result="effect1_innerShadow_1012_315"/>
</filter>
<filter id="filter3_i_1012_315" x="27.5547" y="194.367" width="1947.57" height="132.394" filterUnits="userSpaceOnUse" color-interpolation-filters="sRGB">
<feFlood flood-opacity="0" result="BackgroundImageFix"/>
<feBlend mode="normal" in="SourceGraphic" in2="BackgroundImageFix" result="shape"/>
<feColorMatrix in="SourceAlpha" type="matrix" values="0 0 0 0 0 0 0 0 0 0 0 0 0 0 0 0 0 0 127 0" result="hardAlpha"/>
<feOffset dy="-9"/>
<feGaussianBlur stdDeviation="5.85"/>
<feComposite in2="hardAlpha" operator="arithmetic" k2="-1" k3="1"/>
<feColorMatrix type="matrix" values="0 0 0 0 0 0 0 0 0 0 0 0 0 0 0 0 0 0 1 0"/>
<feBlend mode="normal" in2="shape" result="effect1_innerShadow_1012_315"/>
</filter>
<filter id="filter4_d_1012_315" x="17.9867" y="173.136" width="1967.57" height="148.596" filterUnits="userSpaceOnUse" color-interpolation-filters="sRGB">
<feFlood flood-opacity="0" result="BackgroundImageFix"/>
<feColorMatrix in="SourceAlpha" type="matrix" values="0 0 0 0 0 0 0 0 0 0 0 0 0 0 0 0 0 0 127 0" result="hardAlpha"/>
<feOffset dy="4"/>
<feGaussianBlur stdDeviation="11.7"/>
<feComposite in2="hardAlpha" operator="out"/>
<feColorMatrix type="matrix" values="0 0 0 0 0.346 0 0 0 0 0 0 0 0 0 0.576667 0 0 0 1 0"/>
<feBlend mode="normal" in2="BackgroundImageFix" result="effect1_dropShadow_1012_315"/>
<feBlend mode="normal" in="SourceGraphic" in2="effect1_dropShadow_1012_315" result="shape"/>
</filter>
<filter id="filter5_i_1012_315" x="27.5195" y="256.427" width="1938.8" height="127.375" filterUnits="userSpaceOnUse" color-interpolation-filters="sRGB">
<feFlood flood-opacity="0" result="BackgroundImageFix"/>
<feBlend mode="normal" in="SourceGraphic" in2="BackgroundImageFix" result="shape"/>
<feColorMatrix in="SourceAlpha" type="matrix" values="0 0 0 0 0 0 0 0 0 0 0 0 0 0 0 0 0 0 127 0" result="hardAlpha"/>
<feOffset dy="-4"/>
<feGaussianBlur stdDeviation="6.45"/>
<feComposite in2="hardAlpha" operator="arithmetic" k2="-1" k3="1"/>
<feColorMatrix type="matrix" values="0 0 0 0 0 0 0 0 0 0 0 0 0 0 0 0 0 0 1 0"/>
<feBlend mode="normal" in2="shape" result="effect1_innerShadow_1012_315"/>
</filter>
<filter id="filter6_i_1012_315" x="34.0781" y="32.6963" width="554.754" height="165.162" filterUnits="userSpaceOnUse" color-interpolation-filters="sRGB">
<feFlood flood-opacity="0" result="BackgroundImageFix"/>
<feBlend mode="normal" in="SourceGraphic" in2="BackgroundImageFix" result="shape"/>
<feColorMatrix in="SourceAlpha" type="matrix" values="0 0 0 0 0 0 0 0 0 0 0 0 0 0 0 0 0 0 127 0" result="hardAlpha"/>
<feOffset dy="-8"/>
<feGaussianBlur stdDeviation="5.5"/>
<feComposite in2="hardAlpha" operator="arithmetic" k2="-1" k3="1"/>
<feColorMatrix type="matrix" values="0 0 0 0 0 0 0 0 0 0 0 0 0 0 0 0 0 0 1 0"/>
<feBlend mode="normal" in2="shape" result="effect1_innerShadow_1012_315"/>
</filter>
<linearGradient id="paint0_linear_1012_315" x1="1029.27" y1="856.791" x2="1119.6" y2="1049.64" gradientUnits="userSpaceOnUse">
<stop stop-color="#00C6FC" stop-opacity="0.3"/>
<stop offset="0.298364" stop-color="#15183D" stop-opacity="0.5"/>
</linearGradient>
<linearGradient id="paint1_linear_1012_315" x1="1042.45" y1="664.679" x2="815.852" y2="1153.16" gradientUnits="userSpaceOnUse">
<stop offset="0.270606" stop-color="#81008E" stop-opacity="0.5"/>
<stop offset="1" stop-color="#571945" stop-opacity="0"/>
</linearGradient>
<linearGradient id="paint2_linear_1012_315" x1="982.88" y1="340.636" x2="982.88" y2="290.105" gradientUnits="userSpaceOnUse">
<stop stop-color="#541585" stop-opacity="0"/>
<stop offset="1" stop-color="#541585"/>
</linearGradient>
<linearGradient id="paint3_linear_1012_315" x1="978.549" y1="397.677" x2="978.549" y2="347.146" gradientUnits="userSpaceOnUse">
<stop stop-color="#541585" stop-opacity="0"/>
<stop offset="1" stop-color="#D000FF" stop-opacity="0.5"/>
</linearGradient>
<linearGradient id="paint4_linear_1012_315" x1="130.615" y1="73.2834" x2="416.226" y2="275.767" gradientUnits="userSpaceOnUse">
<stop stop-color="#F6409B" stop-opacity="0.5"/>
<stop offset="0.082215" stop-color="#5F0B35" stop-opacity="0.3"/>
<stop offset="1" stop-color="#F6409B" stop-opacity="0.2"/>
</linearGradient>
<clipPath id="clip0_1012_315">
<rect width="1920" height="973" fill="white" transform="translate(42 42)"/>
</clipPath>
</defs>
</svg>
